<?xml version="1.0" encoding="UTF-8"?>
<!DOCTYPE svg PUBLIC "-//W3C//DTD SVG 1.1//EN" "http://www.w3.org/Graphics/SVG/1.1/DTD/svg11.dtd">
<!-- Creator: CorelDRAW 2021 (64 Bit) -->
<svg xmlns="http://www.w3.org/2000/svg" xml:space="preserve" width="123px" height="111px" version="1.1" style="shape-rendering:geometricPrecision; text-rendering:geometricPrecision; image-rendering:optimizeQuality; fill-rule:evenodd; clip-rule:evenodd"
viewBox="0 0 17.6 15.84"
 xmlns:xlink="http://www.w3.org/1999/xlink"
 xmlns:xodm="http://www.corel.com/coreldraw/odm/2003">
 <defs>
  <style type="text/css">
   <![CDATA[
    .fil0 {fill:black}
   ]]>
  </style>
 </defs>
 <g id="Camada_x0020_1">
  <metadata id="CorelCorpID_0Corel-Layer"/>
  <g id="_2171365958832">
   <path class="fil0" d="M0.88 7.72c0.57,-0.85 2.38,-2.06 3.38,-2.62l1.33 -0.67c0.47,0.34 -0.21,-0.05 -0.91,1.38 -1.01,2.06 -0.24,4.28 0.91,5.05l-0.12 0.17c-0.04,0 -0.09,-0.11 -0.1,-0.09l-0.44 -0.27c-1.3,-0.69 -3.27,-1.79 -4.05,-2.95zm8.29 3.57l-0.86 0c-1.58,0 -3.29,-1.51 -3.29,-3.57 0,-4.45 7,-4.94 7.52,-0.23 0.21,1.87 -1.59,3.8 -3.37,3.8zm3 -6.57c1.14,0.26 3.85,2.27 4.43,3.14 -0.58,0.86 -3.51,2.86 -4.72,3.14 0.7,-1.04 1.43,-1.14 1.43,-3.43 0,-1.32 -0.61,-2.06 -1.14,-2.85zm-3.43 7.71c3.74,0 5.71,-1.81 8,-3.57 0.37,-0.28 0.59,-0.46 0.86,-0.86 -0.41,-0.85 -0.44,-0.94 -1.51,-1.77 -0.7,-0.55 -1.2,-0.99 -1.98,-1.46 -4.34,-2.61 -8.97,-1.99 -12.7,1.34 -0.97,0.87 -1.53,0.98 -1.39,1.65 0,0.02 0.01,0.06 0.02,0.08 0,0.02 0.01,0.06 0.02,0.08 0.08,0.25 -0.01,0.06 0.09,0.25 0.36,0.64 2.75,2.29 3.34,2.65 1.35,0.8 3.17,1.61 5.25,1.61z"/>
   <path class="fil0" d="M9.02 8.72c-0.72,0 -1.28,0.04 -1.28,-1 0,-1.55 2.14,-1.14 2.14,0 0,0.4 -0.45,1 -0.86,1zm-2.14 -0.86c0,2.31 3.71,2.17 3.71,0.14 0,-0.64 0.1,-1.16 -0.7,-1.72 -1.36,-0.97 -3.01,0.03 -3.01,1.58z"/>
   <path class="fil0" d="M8.31 0.57c0,1.31 -0.18,1.86 0.43,1.86 0.58,0 0.43,-0.45 0.43,-1.57 0,-0.53 -0.14,-0.65 -0.43,-0.86 -0.23,0.15 -0.43,0.19 -0.43,0.57z"/>
   <path class="fil0" d="M4.45 14.58c0,0.59 0.42,0.77 1.1,-0.48 0.44,-0.83 0.46,-0.55 0.47,-1.24 -0.7,-0.16 -0.59,-0.17 -0.96,0.47 -0.17,0.3 -0.61,0.92 -0.61,1.25z"/>
   <path class="fil0" d="M11.88 3.14c0.44,-0.29 1.8,-2.28 0.86,-2.28 -0.42,0 -0.49,0.37 -0.91,1.09 -0.36,0.64 -0.56,0.78 0.05,1.19z"/>
   <path class="fil0" d="M11.6 13c0,0.31 0.41,0.85 0.56,1.15 0.29,0.57 0.21,0.69 1.01,0.71 0,-1.55 -1.57,-2.78 -1.57,-1.86z"/>
   <path class="fil0" d="M4.31 1.29c0,0.92 1.57,2.55 1.57,1.57 0,-0.37 -0.84,-1.71 -0.96,-1.78 -0.3,-0.18 -0.61,-0.04 -0.61,0.21z"/>
   <path class="fil0" d="M8.88 13.29c-0.72,0.38 -0.56,0.31 -0.44,1.87 0,0 -0.11,0.93 0.5,0.62 0.37,-0.19 0.38,-1.83 -0.06,-2.49z"/>
  </g>
 </g>
</svg>
