<?xml version="1.0" encoding="UTF-8"?>
<!DOCTYPE svg PUBLIC "-//W3C//DTD SVG 1.1//EN" "http://www.w3.org/Graphics/SVG/1.1/DTD/svg11.dtd">
<!-- Creator: CorelDRAW 2021 (64 Bit) -->
<svg xmlns="http://www.w3.org/2000/svg" xml:space="preserve" width="123px" height="110px" version="1.1" style="shape-rendering:geometricPrecision; text-rendering:geometricPrecision; image-rendering:optimizeQuality; fill-rule:evenodd; clip-rule:evenodd"
viewBox="0 0 17.62 15.81"
 xmlns:xlink="http://www.w3.org/1999/xlink"
 xmlns:xodm="http://www.corel.com/coreldraw/odm/2003">
 <defs>
  <style type="text/css">
   <![CDATA[
    .fil1 {fill:#020202}
    .fil0 {fill:#FE0404}
   ]]>
  </style>
 </defs>
 <g id="Camada_x0020_1">
  <metadata id="CorelCorpID_0Corel-Layer"/>
  <g id="_2171371350208">
   <path class="fil0" d="M12.7 4.02c-0.21,0.29 -1.06,0.89 -1.42,1.01 -0.2,0.27 -1.16,0.97 -1.49,1.15 -0.32,0.31 -0.31,0.37 -0.81,0.58 -0.24,0.32 -0.95,0.78 -1.33,1 -0.29,0.34 -0.25,0.35 -0.69,0.54 -0.56,0.48 -1.06,0.7 -1.58,1.29l-0.57 0.32 -0.61 0.44c-0.29,0.28 -0.22,0.3 -0.69,0.49 -0.36,0.39 -1.94,1.54 -2.44,1.81 0.24,0.35 0.5,0.67 0.72,1.01l3 -2.16c0.25,-0.3 1.1,-0.92 1.46,-1.1 0.42,-0.38 1.02,-0.81 1.51,-1.06 0.23,-0.29 0.32,-0.44 0.79,-0.59 0.27,-0.37 0.86,-0.77 1.31,-0.99 0.29,-0.42 0.27,-0.48 0.84,-0.58 0.28,-0.39 1.02,-0.87 1.46,-1.14l0.7 -0.52 0.43 -0.35 0.72 -0.54c0.47,-0.38 1.99,-1.63 2.44,-1.76 -0.12,-0.43 -0.35,-0.67 -0.57,-1 -0.69,0.16 -2.23,1.56 -3.18,2.15z"/>
   <path class="fil1" d="M12.86 5.52l-0.7 0.52c0.9,1.97 0.28,3.45 -1.06,4.56 -1.29,1.06 -3.8,0.89 -4.85,-0.2 -0.36,0.18 -1.21,0.8 -1.46,1.1 1.24,0.62 3.38,1.13 5.45,0.83 2.25,-0.33 4.65,-1.75 6.25,-3.24 1.52,-1.41 2.18,-1.05 -2.48,-4.46l-0.72 0.54c1.01,0.55 2.85,1.84 3.45,2.74l-2.18 1.7c-1.04,0.79 -1.42,0.85 -2.38,1.35 -0.03,0.02 -0.07,0.05 -0.09,0.06 -0.02,0.01 -0.07,0.03 -0.09,0.05 -0.35,-0.25 -0.14,-0.04 0.32,-0.54 1.74,-1.87 0.87,-3.83 0.54,-5.01z"/>
   <path class="fil1" d="M3.51 10.84c0.47,-0.19 0.4,-0.21 0.69,-0.49 -0.33,-0.26 -0.48,-0.31 -0.86,-0.55 -1.05,-0.66 -2.18,-1.79 -2.56,-2.04 0.65,-0.97 3.58,-3 4.89,-3.3 -0.67,0.99 -2.49,2.53 -0.86,5.45l0.57 -0.32c-0.16,-0.97 -1.12,-3.09 1.02,-4.69 0.77,-0.57 1.11,-0.75 2.43,-0.74 1.03,0 2.04,0.31 2.45,0.87 0.36,-0.12 1.21,-0.72 1.42,-1.01l-0.18 -0.1c-2.9,-1.57 -6.87,-0.8 -9.55,1 -0.71,0.47 -1.15,0.82 -1.82,1.34 -0.37,0.29 -0.53,0.41 -0.85,0.74 -1.26,1.3 1.74,2.68 3.21,3.84z"/>
   <path class="fil1" d="M9.86 7.76c-0.11,0.77 -0.48,1.01 -1.31,0.99 -0.47,0.15 -0.56,0.3 -0.79,0.59 0.87,0.1 1.24,0.52 2.11,-0.11 0.7,-0.5 0.83,-0.9 0.83,-2.05 -0.57,0.1 -0.55,0.16 -0.84,0.58z"/>
   <path class="fil1" d="M6.96 8.3c0.44,-0.19 0.4,-0.2 0.69,-0.54 0.08,-0.47 0.14,-0.67 0.46,-0.87 0.33,-0.21 0.6,-0.24 0.87,-0.13 0.5,-0.21 0.49,-0.27 0.81,-0.58 -0.66,-0.43 -1.53,-0.42 -2.15,0.1 -0.27,0.23 -0.49,0.46 -0.62,0.83 -0.23,0.59 -0.07,0.56 -0.06,1.19z"/>
   <path class="fil1" d="M8.4 13.8l0 1.58c0,0.06 0.11,0.3 0.26,0.43l0.34 0c0.15,-0.19 0.26,-0.72 0.26,-1.87 0,-0.61 -0.86,-0.86 -0.86,-0.14z"/>
   <path class="fil1" d="M11.71 12.94c0,1.72 2.64,3.24 1.03,0.54 -0.35,-0.59 -0.2,-0.67 -0.89,-0.83 0,0 -0.14,0.27 -0.14,0.29z"/>
   <path class="fil1" d="M5.67 3.16l0.26 -0.31c-0.1,-0.51 -0.3,-0.66 -0.55,-1.13 -0.24,-0.46 -0.29,-0.7 -0.86,-0.86 -0.41,0.61 -0.27,0.57 0.17,1.27 0.32,0.52 0.34,0.86 0.98,1.03z"/>
   <path class="fil1" d="M4.38 14.52c0,0.4 0.43,0.78 0.92,0.06 0.09,-0.14 0.21,-0.37 0.31,-0.55 0.36,-0.6 0.47,-0.66 0.35,-1.24 -0.73,0.02 -0.65,0.11 -1.25,1.2 -0.11,0.2 -0.33,0.47 -0.33,0.53z"/>
   <path class="fil1" d="M11.56 2.59c0,1.74 2.62,-2.11 1.06,-1.69 -0.45,0.11 -1.06,1.69 -1.06,1.69z"/>
   <path class="fil1" d="M8.69 2.44l0.29 0c0.18,-0.33 0.36,-2.44 -0.15,-2.44 -0.69,0 -0.51,0.57 -0.46,1.02 0.06,0.48 -0.11,1.42 0.32,1.42z"/>
  </g>
 </g>
</svg>
