<?xml version="1.0" encoding="UTF-8"?>
<!DOCTYPE svg PUBLIC "-//W3C//DTD SVG 1.1//EN" "http://www.w3.org/Graphics/SVG/1.1/DTD/svg11.dtd">
<!-- Creator: CorelDRAW 2021 (64 Bit) -->
<svg xmlns="http://www.w3.org/2000/svg" xml:space="preserve" width="24px" height="29px" version="1.1" style="shape-rendering:geometricPrecision; text-rendering:geometricPrecision; image-rendering:optimizeQuality; fill-rule:evenodd; clip-rule:evenodd"
viewBox="0 0 1.63 1.97"
 xmlns:xlink="http://www.w3.org/1999/xlink"
 xmlns:xodm="http://www.corel.com/coreldraw/odm/2003">
 <defs>
  <style type="text/css">
   <![CDATA[
    .str1 {stroke:#66FF00;stroke-width:0.1;stroke-miterlimit:22.9256}
    .str0 {stroke:#FA0000;stroke-width:0.1;stroke-miterlimit:22.9256}
    .fil0 {fill:none}
   ]]>
  </style>
 </defs>
 <g id="Camada_x0020_1">
  <metadata id="CorelCorpID_0Corel-Layer"/>
  <path class="fil0 str0" d="M0.05 0.24c0.3,-0.01 0.64,-0.08 0.81,-0.2m0.71 0.2l0 0.88c-0.01,0.12 -0.04,0.23 -0.08,0.33m-0.26 0.04l0.37 0.37m-0.94 -1.01l-0.07 0.1 0.2 0.3 0.34 -0.33 -0.12 -0.11 -0.26 0.14 -0.09 -0.1zm0.15 -0.32c0.25,0 0.46,0.19 0.46,0.43 0,0.24 -0.21,0.43 -0.46,0.43 -0.26,0 -0.46,-0.19 -0.46,-0.43 0,-0.24 0.2,-0.43 0.46,-0.43zm-0.76 -0.29c0.29,0 0.56,-0.06 0.74,-0.2m0.81 0.2c-0.29,0 -0.56,-0.06 -0.74,-0.2m-0.81 0.2l0 0.88c0.03,0.41 0.24,0.69 0.68,0.8 0.14,-0.02 0.31,-0.08 0.4,-0.2"/>
  <polyline class="fil0 str1" points="0.69,0.95 0.83,1.08 1.03,0.88 "/>
 </g>
</svg>
