<?xml version="1.0" encoding="UTF-8"?>
<!DOCTYPE svg PUBLIC "-//W3C//DTD SVG 1.1//EN" "http://www.w3.org/Graphics/SVG/1.1/DTD/svg11.dtd">
<!-- Creator: CorelDRAW 2021 (64 Bit) -->
<svg xmlns="http://www.w3.org/2000/svg" xml:space="preserve" width="308px" height="50px" version="1.1" style="shape-rendering:geometricPrecision; text-rendering:geometricPrecision; image-rendering:optimizeQuality; fill-rule:evenodd; clip-rule:evenodd"
viewBox="0 0 177.1 28.76"
 xmlns:xlink="http://www.w3.org/1999/xlink"
 xmlns:xodm="http://www.corel.com/coreldraw/odm/2003">
 <defs>
  <style type="text/css">
   <![CDATA[
    .fil11 {fill:#002700}
    .fil0 {fill:#020249}
    .fil5 {fill:#16D884}
    .fil12 {fill:#170201}
    .fil3 {fill:#1BCC13}
    .fil7 {fill:#42B22C}
    .fil13 {fill:#460301}
    .fil17 {fill:#569E53}
    .fil15 {fill:#700909}
    .fil18 {fill:#906B56}
    .fil19 {fill:#966787}
    .fil14 {fill:#988F1C}
    .fil20 {fill:#9E999F}
    .fil8 {fill:#A4181B}
    .fil16 {fill:#A9572D}
    .fil10 {fill:#C8B146}
    .fil4 {fill:#CB060F}
    .fil1 {fill:#CB6415}
    .fil2 {fill:#CBBA14}
    .fil9 {fill:#CFFAF9}
    .fil6 {fill:#FFF6EA}
   ]]>
  </style>
 </defs>
 <g id="Camada_x0020_1">
  <metadata id="CorelCorpID_0Corel-Layer"/>
  <g id="_1679433588464">
   <path class="fil0" d="M68.68 8.08l87.14 -0.02 0.01 12.65 -87.01 -0.01 -29.15 0.04 -0.01 -12.67 29.02 0.01zm-38.83 9.19c0.01,-1.64 0.66,-0.73 0.86,0 0.22,0.78 -0.86,1.1 -0.86,0zm0.01 -3.45c0.01,-1.79 0.67,-0.68 0.86,-0.01 0.23,0.82 -0.87,0.99 -0.86,0.01zm-4.67 0.57c-1.32,-0.73 -1.31,-0.12 -2.08,-0.57 3.46,-2.25 3.18,1.27 3.22,3.89 -2.65,0.16 -2.11,0.52 -3.86,-0.53 0.47,-3.17 0.25,-0.96 2.72,-2.79zm-6.16 0.76l0 0.76 0.94 1.45 1.35 -0.6c0.4,0.81 0.21,-0.3 0.05,0.77 -0.02,0.1 -0.2,0.44 -0.21,0.55 -0.06,0.52 -0.2,0.34 0.42,1.19 -1.21,1.1 0.13,0.6 -1.95,0.78 1.16,-1 1.18,0.19 -0.23,-2.07l-1.09 -1.12 0.03 -2.6 1.4 -0.95c3.46,-0.16 1.59,-0.31 2.12,0.99l-1.88 -0.56 -0.95 1.41zm-2.93 2.53c-0.85,-0.86 -0.72,0.99 -0.76,-4.38l1.9 0.52c-1.5,1.84 -0.52,1.96 -1.14,3.86zm-4.7 -0.9c0.01,0.01 -0.27,1.2 1.49,0.11 0.32,-0.21 0.67,-1.1 0.68,-1.38 0.05,-1.99 -2.55,-2.4 -2.71,0.03 -0.15,2.32 0.09,0.54 0.54,1.24zm2.68 0.1c-0.42,0.33 -1.75,1.77 -3.45,0.69 -0.84,-0.53 -1.17,-2.34 -0.53,-3.39 1.24,-2.05 5.09,-1.18 3.98,2.7zm-7.17 -1.9c0,0.53 0.03,1.15 -0.05,1.67 -0.17,1.07 -0.18,0.64 -0.51,1.19 -1.03,-0.99 -0.3,0.42 -0.73,-1.18 -0.03,-0.13 -0.09,-1.45 -0.1,-1.65 -0.02,-1.12 0.04,-2.36 0.03,-3.55l3.52 0.18c-2.28,1.24 -1.75,-0.57 -2.48,1.6 0,1.17 1.45,1.24 2.36,1.79l-2.04 -0.05zm-6.91 12.61l177.1 0.02 0 -26.46 -177.1 0.02 0 26.42z"/>
   <path class="fil1" d="M110.58 11.41c1.03,2.48 1.65,4.28 -0.76,5.94 -3.15,-0.65 -2.81,-2.82 -1.94,-5.57l2.7 -0.37zm2.06 0.67c0.9,-0.75 -1.7,-0.62 1.21,-0.63l0.77 1.7c0.04,0.13 0.01,0.76 0.03,0.95 0.89,-1.6 0.19,-0.32 0.51,-1.9 -0.24,-1.02 -0.37,-0.68 0.79,-0.68l1.41 -0.04 -0.22 1.65c0.44,0.93 1.3,1.79 2.17,2.45l-2.05 2.12 -1.63 -0.83 -0.19 -0.69 -0.84 0.33c-0.86,0.82 -0.3,0.61 -1.76,0.67 0.85,-1.64 0.35,-0.65 0.64,-2.08 -0.29,-0.99 -0.44,-0.7 0.63,-0.7l-2.03 -0.58c-0.13,-2.76 -0.51,1.77 0.05,-1.08l0.51 -0.66zm-9.82 5.19c0.61,-3.59 1.23,-1.12 2.39,-4.03 -1.83,-0.94 -1.03,0.03 -2.14,-0.57 0.33,-2.85 6.88,-0.61 1.28,3.11 3.74,1 1.27,-0.46 2.31,1.61l-3.84 -0.12zm-4.92 2.18l0.04 0.71 28.42 -0.05 0.04 -0.9 0.05 -9.53 -0.06 -0.99 -28.45 -0.08 -0.1 0.78 0.06 10.06z"/>
   <path class="fil2" d="M76.19 13.24l-1.84 -1.53c3.98,-0.6 2.91,1 2.97,2.23 0.1,1.98 0.66,2.4 -0.53,3.1 -2.41,1.41 -2.67,-0.58 -2.7,-0.6l2.31 -1.07 -1.64 -0.98 1.43 -1.15zm11.3 0.57l0.09 -0.03 -0.04 0.6 1.54 0.29c0.03,0.03 2.11,-0.24 0.3,2.12 0.39,1.31 0.72,1.17 -0.58,0.77l-1.47 -0.25c-0.87,0.11 -0.65,0.29 -0.57,-0.62l0.08 -0.4 -1.19 0.19c-1.09,0.93 0.15,0.92 -1.63,0.38l-0.1 -1.79 -0.55 0.66 -0.94 0.38c-1.31,1.44 -0.54,1.18 -3,1.06 -0.78,-1.69 -0.85,-3.46 -0.36,-5.36 2.27,-0.57 2.02,-0.79 3.13,0.69l1.18 0.01c0.89,-1.73 -0.56,0.37 0.39,-1.03l1.88 0.21c0.2,0.1 0.46,0.2 0.59,0.29 0.08,0.05 0.23,0.37 0.29,0.28 0.04,-0.06 0.03,0.17 0.01,0.26 -0.39,-1.36 -0.63,-1 0.81,-1l1.21 0.04c-0.55,0.71 -0.05,0.41 -0.26,1.26 0.33,1.34 0.58,0.99 -0.81,0.99zm10.41 5.64l-0.06 -10.06c-4.59,-0.29 -26.09,-0.51 -28.71,0.4l0.12 9.64 28.65 0.02z"/>
   <path class="fil3" d="M47.26 13.24l-1.79 -1.71c3.25,-0.28 2.96,0.88 3.09,2.8 0.21,3.07 0.34,3.09 -3.33,3.08 0.7,-1.59 -0.04,-0.46 1.21,-1.42 0.11,-0.09 0.89,-0.42 0.93,-0.45l-0.82 -1.78c0.08,-0.07 0.54,-0.43 0.71,-0.52zm12.88 1.23c0.81,2.4 0.42,2.92 -1.85,2.69l-0.09 -0.54 -1.25 -0.46c-0.77,1.02 -0.25,0.75 -1.66,1.02 0.86,-1.71 0.05,-0.74 1.03,-1.1 -0.17,-0.09 -1.59,-0.76 -1.63,-0.82l-0.19 -1.27 -0.77 1.34c-0.87,1.81 -0.49,1.72 -2.56,2.05 -2.21,-1.9 -2.25,-4.46 0.58,-6.01 1.78,0.58 0.76,-0.17 1.79,1.29l1.34 -0.39 0 -0.57c1.05,-0.16 1.71,-0.75 2.1,0.58l1.07 0.17c0.84,-0.74 0.41,-0.55 1.57,-0.83l-0.25 1.26c0.29,0.61 0.5,1.09 0.77,1.59zm-19.11 4.61c2.55,0.98 23.89,0.99 27.24,0.24l0.22 -9.7c-3.55,-0.7 -25.73,-0.43 -27.51,0.17l0.05 9.29z"/>
   <path class="fil4" d="M145.51 12.67l0.54 1.92c0.75,-0.33 0.58,-0.48 0.58,0.33 0.01,0.01 1.75,1.75 -0.27,1.75 -0.28,0.57 1.44,0.93 -1.09,0.58l-0.79 -0.71 -0.37 -0.8 -0.4 -0.25c0.17,1.06 0.45,0.86 -0.52,0.86l-0.02 0.9 -1.53 0.38 0.08 -1.74 -0.28 -0.69 -1.38 0.33 0.03 0.27 -0.1 1.04c0.37,1.23 0.7,1.12 -0.51,0.74l-2.35 -0.53c-2.56,0.46 -2.56,0.76 -5.32,0.12 -0.99,-0.6 -1.09,-0.49 -0.43,-1.86 -0.38,-1.13 -0.55,-0.89 0.63,-0.63l0.86 -0.3 0.8 -0.33c-0.15,-0.12 -0.36,-0.24 -0.49,-0.33 -0.13,-0.09 -0.33,-0.22 -0.47,-0.32l-1.53 -1.31c1.33,-1.26 -0.27,-0.6 1.65,-0.83 0.06,-0.01 1.36,0.12 1.55,0.14 1.04,0.1 1.62,0.25 3.05,0.08l1.9 -0.72 0.66 1.27 0.03 0.9 0.96 -0.12 0.36 -0.45c0.91,-1.68 -0.34,-0.31 1.1,-0.77 0.06,-0.02 0.27,0.27 0.31,0.14 0.05,-0.14 0.24,0.16 0.3,0.28 1.09,0.57 0.39,-0.81 1.01,1.09 0.52,-1.19 0.76,-1.44 2.2,-1.27l-0.75 0.84zm-19.11 6.54c4.74,0.21 24.72,0.98 27.68,-0.23 0.93,-2.25 0.4,-6.37 0.4,-9.19 -2.3,-0.83 -10.69,-0.32 -13.62,-0.4 -3.4,-0.1 -11.4,-0.32 -14.41,0.29l-0.05 9.53z"/>
   <polygon class="fil5" points="0,28.76 177.1,28.74 177.1,27.61 0,27.59 "/>
   <polygon class="fil5" points="0,1.17 177.1,1.15 177.1,0.02 0,0 "/>
   <polygon class="fil6" points="97.94,8.61 126.39,8.69 155.22,8.66 155.23,20.09 126.36,20.11 97.94,20.16 68.94,20.19 68.82,20.7 155.83,20.71 155.82,8.06 68.68,8.08 68.82,8.65 "/>
   <path class="fil7" d="M40.98 9.79c1.78,-0.6 23.96,-0.87 27.51,-0.17l-0.22 9.7c-3.35,0.75 -24.69,0.74 -27.24,-0.24l-0.05 -9.29zm27.96 10.4c0.46,-3.26 0.63,-8.38 -0.12,-11.54l-28.44 0.02 -0.12 11.36 28.68 0.16z"/>
   <path class="fil8" d="M126.4 19.21l-0.04 0.9 28.87 -0.02 -0.01 -11.43 -28.83 0.03 0.06 0.99c3.01,-0.61 11.01,-0.39 14.41,-0.29 2.93,0.08 11.32,-0.43 13.62,0.4 0,2.82 0.53,6.94 -0.4,9.19 -2.96,1.21 -22.94,0.44 -27.68,0.23z"/>
   <polygon class="fil9" points="68.82,20.7 68.94,20.19 40.26,20.03 40.38,8.67 68.82,8.65 68.68,8.08 39.66,8.07 39.67,20.74 "/>
   <path class="fil10" d="M68.94 20.19l29 -0.03 -0.04 -0.71 -28.65 -0.02 -0.12 -9.64c2.62,-0.91 24.12,-0.69 28.71,-0.4l0.1 -0.78 -29.12 0.04c0.75,3.16 0.58,8.28 0.12,11.54z"/>
   <path class="fil8" d="M135.01 14.39c-1.45,1.42 -0.48,-0.33 -1.65,1.68l1.88 0.62c-0.93,0.66 0.99,0.39 -1.8,0.69 -0.4,0.04 -1.17,-0.15 -1.63,-0.21l-0.13 -1.05 -0.3 -0.81c0.92,0.04 0.73,0.27 0.63,-0.63l0.86 -0.3 0.8 -0.33 0.28 -1.31 -1.87 -0.65c1.9,-1.2 1.57,-0.35 2.89,-0.35l0.04 2.65zm-1.34 -0.34l-0.8 0.33 -0.86 0.3c-1.18,-0.26 -1.01,-0.5 -0.63,0.63 -0.66,1.37 -0.56,1.26 0.43,1.86 2.76,0.64 2.76,0.34 5.32,-0.12l2.35 0.53c1.21,0.38 0.88,0.49 0.51,-0.74l0.1 -1.04 -0.1 1.04c-0.97,-0.09 -0.72,-0.27 -0.51,0.74l-2.35 -0.53c-1.83,-2.85 -1.33,-3.39 0.3,-5.57 2.17,0.09 1.04,-0.14 2.56,0.55l0.03 0.9 0.04 2.6 1.38 -0.33 0.28 0.69 -0.08 1.74 0.08 -1.74 0.86 -0.2 0.12 -1.37c-2.6,0.09 -0.93,0.19 -1.26,-0.55 -0.68,-0.26 -0.73,1.23 -0.46,-0.96l-0.96 0.12 -0.03 -0.9 -0.66 -1.27 -1.9 0.72c-1.43,0.17 -2.01,0.02 -3.05,-0.08 -0.19,-0.02 -1.49,-0.15 -1.55,-0.14 -1.92,0.23 -0.32,-0.43 -1.65,0.83l1.53 1.31c0.14,0.1 0.34,0.23 0.47,0.32 0.13,0.09 0.34,0.21 0.49,0.33z"/>
   <path class="fil11" d="M51.75 12.87c0.1,0.13 0.58,-0.57 0.64,1.53 0.08,2.45 -0.52,1.4 -0.64,1.55 -0.92,-1.49 -0.96,-1.55 0,-3.08zm1.98 2.46l-0.19 -2.67c-1.03,-1.46 -0.01,-0.71 -1.79,-1.29 -2.83,1.55 -2.79,4.11 -0.58,6.01 2.07,-0.33 1.69,-0.24 2.56,-2.05z"/>
   <path class="fil12" d="M138 16.02c-1.09,-1.5 -1.1,-1.79 0,-3.23 2.54,2.31 0.01,3.17 0,3.23zm-0.87 1.03l2.35 0.53c-0.21,-1.01 -0.46,-0.83 0.51,-0.74l0.1 -1.04 -0.03 -0.27 -0.04 -2.6 -0.03 -0.9c-1.52,-0.69 -0.39,-0.46 -2.56,-0.55 -1.63,2.18 -2.13,2.72 -0.3,5.57z"/>
   <path class="fil12" d="M109.25 12.82c0.21,0.23 0.72,-0.68 0.79,1.57 0.07,2.22 -0.66,1.45 -0.79,1.6 -0.94,-1.34 -1.02,-1.81 0,-3.17zm-1.37 -1.04c-0.87,2.75 -1.21,4.92 1.94,5.57 2.41,-1.66 1.79,-3.46 0.76,-5.94l-2.7 0.37z"/>
   <path class="fil13" d="M115.44 16.18l0.19 0.69c0.81,0.25 0.99,0.51 2.2,-0.18 0.29,-2.75 0.61,-2.05 -1.92,-2.3 2.16,1.7 1.19,-0.34 1.4,2.21 -1.34,-0.52 -0.38,0.1 -1.54,-1.41 -0.08,-0.09 -0.18,-0.3 -0.29,-0.43l-0.04 1.42zm-0.28 -3.98c-0.32,1.58 0.38,0.3 -0.51,1.9 -0.02,-0.19 0.01,-0.82 -0.03,-0.95l-0.77 -1.7c-2.91,0.01 -0.31,-0.12 -1.21,0.63l-0.51 0.66c-0.56,2.85 -0.18,-1.68 -0.05,1.08l2.03 0.58c1.67,2.73 -0.22,1.18 2.15,-0.34 -0.09,-2.82 0.27,-0.26 -1.1,-1.86zm-0.56 4.31c-0.31,-1.35 0.09,-0.9 -1.12,-1.41 -0.29,1.43 0.21,0.44 -0.64,2.08 1.46,-0.06 0.9,0.15 1.76,-0.67zm1.35 -4.99c0.29,1.5 -0.13,0.98 1.19,1.61l0.22 -1.65 -1.41 0.04zm-3.31 0.56c1.42,0.6 0.44,-0.33 1.02,0.7 0.8,1.42 -0.35,0.81 -0.51,0.9l-0.51 -1.6z"/>
   <path class="fil12" d="M80.5 12.81c0.21,0.24 0.71,-0.83 0.78,1.58 0.06,2.18 -0.73,1.51 -0.78,1.57 -0.99,-1.46 -0.97,-1.71 0,-3.15zm1.93 3.3l-0.23 -3.61c-1.11,-1.48 -0.86,-1.26 -3.13,-0.69 -0.49,1.9 -0.42,3.67 0.36,5.36 2.46,0.12 1.69,0.38 3,-1.06z"/>
   <path class="fil12" d="M103.07 12.67c1.11,0.6 0.31,-0.37 2.14,0.57 -1.16,2.91 -1.78,0.44 -2.39,4.03l3.84 0.12c-1.04,-2.07 1.43,-0.61 -2.31,-1.61 5.6,-3.72 -0.95,-5.96 -1.28,-3.11z"/>
   <path class="fil12" d="M76.19 13.24l-1.43 1.15 1.64 0.98 -2.31 1.07c0.03,0.02 0.29,2.01 2.7,0.6 1.19,-0.7 0.63,-1.12 0.53,-3.1 -0.06,-1.23 1.01,-2.83 -2.97,-2.23l1.84 1.53z"/>
   <path class="fil11" d="M47.26 13.24c-0.17,0.09 -0.63,0.45 -0.71,0.52l0.82 1.78c-0.04,0.03 -0.82,0.36 -0.93,0.45 -1.25,0.96 -0.51,-0.17 -1.21,1.42 3.67,0.01 3.54,-0.01 3.33,-3.08 -0.13,-1.92 0.16,-3.08 -3.09,-2.8l1.79 1.71z"/>
   <path class="fil14" d="M85.34 14.67l0.28 -0.02c1.3,-1.36 0.81,-0.48 0.92,-2.13 1.23,0.18 0.83,0.38 0.81,-1 -1.44,0 -1.2,-0.36 -0.81,1 0.02,-0.09 0.03,-0.32 -0.01,-0.26 -0.06,0.09 -0.21,-0.23 -0.29,-0.28 -0.13,-0.09 -0.39,-0.19 -0.59,-0.29l-0.31 2.98zm2.96 -1.85c-1.35,-0.26 -0.96,-0.47 -0.81,0.99 1.39,0 1.14,0.35 0.81,-0.99zm-2.65 3.66l1.19 -0.19 0.08 -1.35c1.18,2.34 -0.53,0.86 1.83,1.92 -0.16,-1.43 0.27,-0.37 -0.4,-1.58l-0.51 -0.66c-0.05,-0.06 -0.21,-0.15 -0.3,-0.24l0.04 -0.6c-1.19,0.9 -0.02,-0.58 -1.09,0.88 -0.85,1.15 -0.42,0.71 -0.84,1.82zm3.73 0.31c1.81,-2.36 -0.27,-2.09 -0.3,-2.12l0.3 2.12c-0.87,0.1 -0.64,-0.14 -0.58,0.77 1.3,0.4 0.97,0.54 0.58,-0.77zm-2.05 0.52l-0.57 -0.62c-0.08,0.91 -0.3,0.73 0.57,0.62z"/>
   <path class="fil15" d="M141.44 13.77l1.26 0.55 -0.12 1.37c1.42,-1.24 0.81,-0.55 1.48,-2.59 -0.62,-1.9 0.08,-0.52 -1.01,-1.09l-0.31 0.52 -1.4 -0.17 0.1 1.41zm2.27 1.72l0.4 0.25c-0.32,-0.64 0.02,-0.76 -0.4,-0.25l-0.52 0.86c0.97,0 0.69,0.2 0.52,-0.86zm2.34 -0.9l-0.54 -1.92c-0.1,0.16 -0.25,0.18 -0.3,0.46l-0.98 2.05 1.82 -0.59zm0.31 2.08c2.02,0 0.28,-1.74 0.27,-1.75l-1.49 -0.07c0.49,1.98 1.03,1.84 1.22,1.82zm-1.09 0.58c0.14,-1.12 0.37,-0.85 -0.79,-0.71l0.79 0.71z"/>
   <path class="fil7" d="M54.5 13.99l0.38 -1.72 0 -0.57 0 0.57 -1.34 0.39 0.19 2.67 0.77 -1.34 0.19 1.27c0.04,0.06 1.46,0.73 1.63,0.82 0.61,-1.7 0.17,-0.64 0.86,-2.02 0.47,-0.94 0.43,-0.79 0.87,-1.61l-1.07 -0.17 0.01 1.86 -0.67 -0.5 -1.11 0.08 1.44 0.63c-1.58,-0.16 -1.46,-0.07 -2.15,-0.36zm2.45 2.17l1.25 0.46 0.09 0.54 -0.09 -0.54 -0.3 -1.9 0.78 0.59 1.08 -0.23 -1.19 -0.17 1.57 -0.44c-0.27,-0.5 -0.48,-0.98 -0.77,-1.59 -1.64,1.34 -1.29,1.57 -2.42,3.28z"/>
   <path class="fil9" d="M25.3 16.12c-0.57,0.95 0.28,0.41 -0.75,0.86 -1.84,0.81 -0.57,-0.04 -1.07,-0.29 0.37,-2.27 1.6,-0.69 1.82,-0.57zm-2.19 -2.3c0.77,0.45 0.76,-0.16 2.08,0.57 -2.47,1.83 -2.25,-0.38 -2.72,2.79 1.75,1.05 1.21,0.69 3.86,0.53 -0.04,-2.62 0.24,-6.14 -3.22,-3.89z"/>
   <path class="fil9" d="M11.4 16.78c-0.45,-0.7 -0.69,1.08 -0.54,-1.24 0.16,-2.43 2.76,-2.02 2.71,-0.03 -0.01,0.28 -0.36,1.17 -0.68,1.38 -1.76,1.09 -1.48,-0.1 -1.49,-0.11zm2.68 0.1c1.11,-3.88 -2.74,-4.75 -3.98,-2.7 -0.64,1.05 -0.31,2.86 0.53,3.39 1.7,1.08 3.03,-0.36 3.45,-0.69z"/>
   <path class="fil13" d="M144.06 13.1c-0.67,2.04 -0.06,1.35 -1.48,2.59l-0.86 0.2 -0.08 1.74 1.53 -0.38 0.02 -0.9 0.52 -0.86c0.42,-0.51 0.08,-0.39 0.4,0.25l0.37 0.8c1.16,-0.14 0.93,-0.41 0.79,0.71 2.53,0.35 0.81,-0.01 1.09,-0.58 -0.19,0.02 -0.73,0.16 -1.22,-1.82l1.49 0.07c0,-0.81 0.17,-0.66 -0.58,-0.33l-1.82 0.59 0.98 -2.05c0.05,-0.28 0.2,-0.3 0.3,-0.46l0.75 -0.84c-1.44,-0.17 -1.68,0.08 -2.2,1.27z"/>
   <path class="fil16" d="M115.63 16.87l1.63 0.83 2.05 -2.12c-0.87,-0.66 -1.73,-1.52 -2.17,-2.45 -1.32,-0.63 -0.9,-0.11 -1.19,-1.61 -1.16,0 -1.03,-0.34 -0.79,0.68 1.37,1.6 1.01,-0.96 1.1,1.86 -2.37,1.52 -0.48,3.07 -2.15,0.34 -1.07,0 -0.92,-0.29 -0.63,0.7 1.21,0.51 0.81,0.06 1.12,1.41l0.84 -0.33 0.04 -1.42c0.11,0.13 0.21,0.34 0.29,0.43 1.16,1.51 0.2,0.89 1.54,1.41 -0.21,-2.55 0.76,-0.51 -1.4,-2.21 2.53,0.25 2.21,-0.45 1.92,2.3 -1.21,0.69 -1.39,0.43 -2.2,0.18z"/>
   <path class="fil9" d="M18.34 14.26l-0.03 2.6 1.09 1.12c1.41,2.26 1.39,1.07 0.23,2.07 2.08,-0.18 0.74,0.32 1.95,-0.78 -0.62,-0.85 -0.48,-0.67 -0.42,-1.19 0.01,-0.11 0.19,-0.45 0.21,-0.55 0.16,-1.07 0.35,0.04 -0.05,-0.77l-1.35 0.6c-0.92,-0.57 -0.59,0.07 -0.94,-1.45l0 -0.76c0.37,-1.16 -0.63,-0.31 0.95,-1.41l1.88 0.56c-0.53,-1.3 1.34,-1.15 -2.12,-0.99l-1.4 0.95z"/>
   <path class="fil9" d="M6.35 17.84c-0.02,-0.44 -0.08,-1.28 0.01,-1.68 0.3,-1.27 -0.01,-0.47 0.55,-1.18l2.04 0.05c-0.91,-0.55 -2.36,-0.62 -2.36,-1.79 0.73,-2.17 0.2,-0.36 2.48,-1.6l-3.52 -0.18c0.01,1.19 -0.05,2.43 -0.03,3.55 0.01,0.2 0.07,1.52 0.1,1.65 0.43,1.6 -0.3,0.19 0.73,1.18z"/>
   <path class="fil11" d="M58.05 12.45c-0.44,0.82 -0.4,0.67 -0.87,1.61 -0.69,1.38 -0.25,0.32 -0.86,2.02 -0.98,0.36 -0.17,-0.61 -1.03,1.1 1.41,-0.27 0.89,0 1.66,-1.02 1.13,-1.71 0.78,-1.94 2.42,-3.28l0.25 -1.26c-1.16,0.28 -0.73,0.09 -1.57,0.83z"/>
   <path class="fil12" d="M86.54 12.52c-0.11,1.65 0.38,0.77 -0.92,2.13l-1.6 2.21c1.78,0.54 0.54,0.55 1.63,-0.38 0.42,-1.11 -0.01,-0.67 0.84,-1.82 1.07,-1.46 -0.1,0.02 1.09,-0.88l-0.09 0.03c-0.15,-1.46 -0.54,-1.25 0.81,-0.99 0.21,-0.85 -0.29,-0.55 0.26,-1.26l-1.21 -0.04c0.02,1.38 0.42,1.18 -0.81,1z"/>
   <path class="fil12" d="M84.94 13.13l-0.42 0.59c-0.18,-0.18 -0.88,-0.21 0,-1.5 0.54,0.69 0.3,-0.28 0.42,0.91zm-1.56 -0.62l-0.29 1.43c1.11,-0.11 0.89,-0.35 0.63,0.74l1.62 -0.01 0.31 -2.98 -1.88 -0.21c-0.95,1.4 0.5,-0.7 -0.39,1.03z"/>
   <path class="fil6" d="M16.1 17.68c0.62,-1.9 -0.36,-2.02 1.14,-3.86l-1.9 -0.52c0.04,5.37 -0.09,3.52 0.76,4.38z"/>
   <path class="fil12" d="M131.68 16.12l0.13 1.05c0.46,0.06 1.23,0.25 1.63,0.21 2.79,-0.3 0.87,-0.03 1.8,-0.69l-1.88 -0.62 -0.58 -0.81c-0.3,0.34 -0.9,0.55 -1.1,0.86z"/>
   <path class="fil8" d="M138 16.02c0.01,-0.06 2.54,-0.92 0,-3.23 -1.1,1.44 -1.09,1.73 0,3.23z"/>
   <path class="fil13" d="M133.67 14.05l-0.8 0.33 -0.86 0.3c0.1,0.9 0.29,0.67 -0.63,0.63l0.3 0.81c0.2,-0.31 0.8,-0.52 1.1,-0.86l0.58 0.81c1.17,-2.01 0.2,-0.26 1.65,-1.68 -0.48,-0.62 -0.44,0.12 -1.06,-1.65l-0.28 1.31z"/>
   <path class="fil14" d="M82.43 16.11l0.94 -0.38 -0.28 -1.79c-0.37,1.3 -0.65,1.12 0.63,0.74 0.26,-1.09 0.48,-0.85 -0.63,-0.74l0.29 -1.43 -1.18 -0.01 0.23 3.61z"/>
   <path class="fil11" d="M56.32 13.64l0.67 0.5 -0.01 -1.86c-0.39,-1.33 -1.05,-0.74 -2.1,-0.58l0 0.57 -0.38 1.72c0.69,0.29 0.57,0.2 2.15,0.36l-1.44 -0.63c0.29,-1.97 -0.52,-0.85 0.56,-1.52 0.7,0.48 0.53,-1.04 0.55,1.44z"/>
   <path class="fil11" d="M58.68 15.31l-0.78 -0.59 0.3 1.9 0.09 0.54c2.27,0.23 2.66,-0.29 1.85,-2.69l-1.57 0.44 1.19 0.17c-0.26,1.99 0.49,0.85 -0.54,1.51 -0.8,-0.48 -0.87,1.44 -0.54,-1.28z"/>
   <path class="fil12" d="M86.84 16.29l-0.08 0.4 0.57 0.62 1.47 0.25c-0.06,-0.91 -0.29,-0.67 0.58,-0.77l-0.3 -2.12 -1.54 -0.29c0.09,0.09 0.25,0.18 0.3,0.24l0.51 0.66c0.67,1.21 0.24,0.15 0.4,1.58 -2.36,-1.06 -0.65,0.42 -1.83,-1.92l-0.08 1.35z"/>
   <path class="fil1" d="M109.25 15.99c0.13,-0.15 0.86,0.62 0.79,-1.6 -0.07,-2.25 -0.58,-1.34 -0.79,-1.57 -1.02,1.36 -0.94,1.83 0,3.17z"/>
   <path class="fil2" d="M80.5 15.96c0.05,-0.06 0.84,0.61 0.78,-1.57 -0.07,-2.41 -0.57,-1.34 -0.78,-1.58 -0.97,1.44 -0.99,1.69 0,3.15z"/>
   <path class="fil12" d="M133.95 12.74c0.62,1.77 0.58,1.03 1.06,1.65l-0.04 -2.65c-1.32,0 -0.99,-0.85 -2.89,0.35l1.87 0.65z"/>
   <path class="fil3" d="M51.75 15.95c0.12,-0.15 0.72,0.9 0.64,-1.55 -0.06,-2.1 -0.54,-1.4 -0.64,-1.53 -0.96,1.53 -0.92,1.59 0,3.08z"/>
   <path class="fil0" d="M23.48 16.69c0.5,0.25 -0.77,1.1 1.07,0.29 1.03,-0.45 0.18,0.09 0.75,-0.86 -0.22,-0.12 -1.45,-1.7 -1.82,0.57z"/>
   <path class="fil13" d="M140.98 12.81c-0.27,2.19 -0.22,0.7 0.46,0.96 0.33,0.74 -1.34,0.64 1.26,0.55l-1.26 -0.55 -0.1 -1.41 1.4 0.17 0.31 -0.52c-0.06,-0.12 -0.25,-0.42 -0.3,-0.28 -0.04,0.13 -0.25,-0.16 -0.31,-0.14 -1.44,0.46 -0.19,-0.91 -1.1,0.77l-0.36 0.45z"/>
   <path class="fil10" d="M83.37 15.73l0.55 -0.66 0.1 1.79 1.6 -2.21 -0.28 0.02 -1.62 0.01c-1.28,0.38 -1,0.56 -0.63,-0.74l0.28 1.79z"/>
   <path class="fil17" d="M59.76 15.08l-1.08 0.23c-0.33,2.72 -0.26,0.8 0.54,1.28 1.03,-0.66 0.28,0.48 0.54,-1.51z"/>
   <path class="fil17" d="M55.21 13.72l1.11 -0.08c-0.02,-2.48 0.15,-0.96 -0.55,-1.44 -1.08,0.67 -0.27,-0.45 -0.56,1.52z"/>
   <path class="fil18" d="M112.64 12.08l0.51 1.6c0.16,-0.09 1.31,0.52 0.51,-0.9 -0.58,-1.03 0.4,-0.1 -1.02,-0.7z"/>
   <path class="fil19" d="M6.35 17.84c0.33,-0.55 0.34,-0.12 0.51,-1.19 0.08,-0.52 0.05,-1.14 0.05,-1.67 -0.56,0.71 -0.25,-0.09 -0.55,1.18 -0.09,0.4 -0.03,1.24 -0.01,1.68z"/>
   <path class="fil9" d="M29.86 13.82c-0.01,0.98 1.09,0.81 0.86,-0.01 -0.19,-0.67 -0.85,-1.78 -0.86,0.01z"/>
   <path class="fil9" d="M29.85 17.27c0,1.1 1.08,0.78 0.86,0 -0.2,-0.73 -0.85,-1.64 -0.86,0z"/>
   <path class="fil10" d="M84.52 13.72l0.42 -0.59c-0.12,-1.19 0.12,-0.22 -0.42,-0.91 -0.88,1.29 -0.18,1.32 0,1.5z"/>
   <path class="fil20" d="M18.31 16.86l1.09 1.12 -1.09 -1.12zm0.72 -0.95c0.35,1.52 0.02,0.88 0.94,1.45l-0.94 -1.45z"/>
   <path class="fil20" d="M19.74 13.31l-1.4 0.95 1.4 -0.95zm0.24 0.43c-1.58,1.1 -0.58,0.25 -0.95,1.41l0.95 -1.41z"/>
  </g>
 </g>
</svg>
